Coordinates
version=1
nRows=5
nColumns=40
inDegrees=yes

Units are S.I. units (second, meters, Newtons, ...)
Angles are in degrees.

endheader
time	pelvis_tilt	pelvis_list	pelvis_rotation	pelvis_tx	pelvis_ty	pelvis_tz	hip_flexion_r	hip_adduction_r	hip_rotation_r	knee_angle_r	knee_angle_r_beta	ankle_angle_r	subtalar_angle_r	mtp_angle_r	hip_flexion_l	hip_adduction_l	hip_rotation_l	knee_angle_l	knee_angle_l_beta	ankle_angle_l	subtalar_angle_l	mtp_angle_l	lumbar_extension	lumbar_bending	lumbar_rotation	arm_flex_r	arm_add_r	arm_rot_r	elbow_flex_r	pro_sup_r	wrist_flex_r	wrist_dev_r	arm_flex_l	arm_add_l	arm_rot_l	elbow_flex_l	pro_sup_l	wrist_flex_l	wrist_dev_l
     21.48500000	     -8.15378993	     -3.02547847	     -8.85725367	      1.02918219	      0.92247758	      0.50403383	     23.03317008	      2.53109250	     -6.37061445	     19.31993902	     19.31993902	      6.22759604	      0.88001468	     -5.30571241	      5.01945543	     -7.50253375	    -12.02575309	     24.20903433	     24.20903433	     18.59096647	    -11.27471842	      1.08084546	     -9.35821588	      7.53491746	      0.71720515	     -6.33515255	    -13.78247536	    -12.88776668	     34.02852062	     45.74574470	      0.00000000	      0.00000000	     27.37456832	    -17.07547603	    -15.14289063	     80.71623666	     48.63516577	      0.00000000	      0.00000000
     21.50428571	     -8.07584496	     -3.11874232	     -8.28239396	      1.03038141	      0.92348941	      0.50771701	     22.20425591	      2.68126974	     -6.83301175	     18.95436607	     18.95436607	      6.62190024	      0.91063205	     -5.24071498	      5.65080538	     -8.08631592	    -11.36558103	     26.19648208	     26.19648208	     17.81868754	    -11.80393379	      0.57985769	     -9.39909862	      7.62558506	      0.65781925	     -5.92257272	    -14.18726543	    -13.04421347	     34.24263285	     45.75361322	      0.00000000	      0.00000000	     26.31975254	    -16.58278107	    -14.60205282	     79.76436491	     48.57042159	      0.00000000	      0.00000000
     21.52357143	     -7.98698933	     -3.22565114	     -7.74356147	      1.03133627	      0.92435285	      0.51142566	     21.41690436	      2.87157600	     -7.25103919	     18.65997017	     18.65997017	      7.05699602	      0.92737995	     -5.24127474	      6.49012007	     -8.71773560	    -10.65112379	     28.53308673	     28.53308673	     16.90712479	    -12.44977489	     -0.00042715	     -9.49486656	      7.69264745	      0.56411958	     -5.33775505	    -14.55306069	    -13.15160033	     34.53945866	     45.75551054	      0.00000000	      0.00000000	     25.19116319	    -16.20352746	    -14.00167313	     78.51766098	     48.49672469	      0.00000000	      0.00000000
     21.54285714	     -7.96450808	     -3.30370036	     -7.14015975	      1.03199022	      0.92490453	      0.51501543	     20.78247154	      3.03438823	     -7.67711332	     18.46261499	     18.46261499	      7.50665662	      0.81403279	     -4.92854497	      7.51139554	     -9.30285536	     -9.77493748	     30.79662246	     30.79662246	     14.29467063	    -14.02030445	     -4.04080723	     -9.38710726	      7.70956899	      1.19668518	     -5.64607173	    -14.91806945	    -13.76067567	     35.59415483	     45.77558080	      0.00000000	      0.00000000	     25.17438266	    -15.85305907	    -11.30709198	     74.68384882	     48.20678972	      0.00000000	      0.00000000
     21.56214286	     -7.86375594	     -3.46035558	     -6.55893800	      1.03243643	      0.92535709	      0.51858799	     20.10683250	      3.29228994	     -8.06659958	     18.32134550	     18.32134550	      7.86848492	      0.58743733	     -4.95818510	      8.86014976	    -10.00608984	     -8.81090985	     33.89783717	     33.89783717	     13.12137647	    -14.87043492	     -4.41927495	     -9.50852865	      7.72683246	      0.96960988	     -4.88054519	    -15.26230190	    -13.82811663	     35.92903120	     45.77466216	      0.00000000	      0.00000000	     23.82334191	    -15.49068276	    -10.84492125	     73.29619779	     48.13838082	      0.00000000	      0.00000000
